HIERARCHY
ROOT Hips
{
  OFFSET 5.84602e-005 68.8428 3.50346
  CHANNELS 6 Xposition Yposition Zposition Zrotation Xrotation Yrotation
  JOINT Spine
  {
    OFFSET 0 8.597 -4.6522
    CHANNELS 3 Zrotation Xrotation Yrotation
    JOINT Spine1
    {
      OFFSET 0 7.8454 0.4098
      CHANNELS 3 Zrotation Xrotation Yrotation
      JOINT Spine2
      {
        OFFSET 0 9.7078 -2.1609
        CHANNELS 3 Zrotation Xrotation Yrotation
        JOINT Neck
        {
          OFFSET 0 21.8761 -0.4549
          CHANNELS 3 Zrotation Xrotation Yrotation
          JOINT Head
          {
            OFFSET 0 12.3537 3.3602
            CHANNELS 3 Zrotation Xrotation Yrotation
            End Site
            {
              OFFSET 0.0001 18.9506 0.5657
            }
          }
        }
        JOINT LeftShoulder
        {
          OFFSET 2.2086 21.1115 7.2329
          CHANNELS 3 Zrotation Xrotation Yrotation
          JOINT LeftArm
          {
            OFFSET 13.1193 3.0282 -4.8998
            CHANNELS 3 Zrotation Xrotation Yrotation
            JOINT LeftForeArm
            {
              OFFSET 27.4081 -0.0973053 -0.2375
              CHANNELS 3 Zrotation Xrotation Yrotation
              JOINT LeftHand
              {
                OFFSET 22.8641 0.0662994 -0.1369
                CHANNELS 3 Zrotation Xrotation Yrotation
                JOINT LeftHandIndex1
                {
                  OFFSET 8.8614 0.775009 2.4612
                  CHANNELS 3 Zrotation Xrotation Yrotation
                  JOINT LeftHandIndex2
                  {
                    OFFSET 3.3146 -0.808304 0.5841
                    CHANNELS 3 Zrotation Xrotation Yrotation
                    JOINT LeftHandIndex3
                    {
                      OFFSET 2.2628 -0.552002 0.3989
                      CHANNELS 3 Zrotation Xrotation Yrotation
                      End Site
                      {
                        OFFSET 1.6102 -0.4807 0.2612
                      }
                    }
                  }
                }
                JOINT LeftHandMiddle1
                {
                  OFFSET 8.9937 0.895004 0.2143
                  CHANNELS 3 Zrotation Xrotation Yrotation
                  JOINT LeftHandMiddle2
                  {
                    OFFSET 4.0984 0.0113983 -0.0242
                    CHANNELS 3 Zrotation Xrotation Yrotation
                    JOINT LeftHandMiddle3
                    {
                      OFFSET 2.2716 0.00689697 -0.0138001
                      CHANNELS 3 Zrotation Xrotation Yrotation
                      End Site
                      {
                        OFFSET 2.0404 -0.1441 0.0027
                      }
                    }
                  }
                }
                JOINT LeftHandRing1
                {
                  OFFSET 8.5234 0.597198 -2.0164
                  CHANNELS 3 Zrotation Xrotation Yrotation
                  JOINT LeftHandRing2
                  {
                    OFFSET 3.7188 -0.188293 -0.2328
                    CHANNELS 3 Zrotation Xrotation Yrotation
                    JOINT LeftHandRing3
                    {
                      OFFSET 2.1191 -0.106598 -0.1332
                      CHANNELS 3 Zrotation Xrotation Yrotation
                      End Site
                      {
                        OFFSET 1.8737 -0.2304 -0.0886
                      }
                    }
                  }
                }
                JOINT LeftHandPinky1
                {
                  OFFSET 7.9094 -0.601089 -3.4825
                  CHANNELS 3 Zrotation Xrotation Yrotation
                  JOINT LeftHandPinky2
                  {
                    OFFSET 2.2874 -0.477005 -0.6314
                    CHANNELS 3 Zrotation Xrotation Yrotation
                    JOINT LeftHandPinky3
                    {
                      OFFSET 1.6774 -0.349396 -0.4633
                      CHANNELS 3 Zrotation Xrotation Yrotation
                      End Site
                      {
                        OFFSET 1.4888 -0.4091 -0.3416
                      }
                    }
                  }
                }
                JOINT LeftHandThumb1
                {
                  OFFSET 1.833 -1.3875 1.3896
                  CHANNELS 3 Zrotation Xrotation Yrotation
                  JOINT LeftHandThumb2
                  {
                    OFFSET 3.4129 -1.121 2.5732
                    CHANNELS 3 Zrotation Xrotation Yrotation
                    JOINT LeftHandThumb3
                    {
                      OFFSET 2.2474 -0.804199 1.6192
                      CHANNELS 3 Zrotation Xrotation Yrotation
                      End Site
                      {
                        OFFSET 1.6527 -0.5689 1.1317
                      }
                    }
                  }
                }
              }
            }
          }
        }
        JOINT RightShoulder
        {
          OFFSET -2.2086 21.1115 7.2329
          CHANNELS 3 Zrotation Xrotation Yrotation
          JOINT RightArm
          {
            OFFSET -13.1216 3.0287 -4.9007
            CHANNELS 3 Zrotation Xrotation Yrotation
            JOINT RightForeArm
            {
              OFFSET -27.4081 -0.0973053 -0.2375
              CHANNELS 3 Zrotation Xrotation Yrotation
              JOINT RightHand
              {
                OFFSET -22.8641 0.0664063 -0.1369
                CHANNELS 3 Zrotation Xrotation Yrotation
                JOINT RightHandIndex1
                {
                  OFFSET -8.8614 0.774994 2.4612
                  CHANNELS 3 Zrotation Xrotation Yrotation
                  JOINT RightHandIndex2
                  {
                    OFFSET -3.3146 -0.808304 0.5841
                    CHANNELS 3 Zrotation Xrotation Yrotation
                    JOINT RightHandIndex3
                    {
                      OFFSET -2.2628 -0.552002 0.3989
                      CHANNELS 3 Zrotation Xrotation Yrotation
                      End Site
                      {
                        OFFSET -1.6102 -0.4807 0.2612
                      }
                    }
                  }
                }
                JOINT RightHandMiddle1
                {
                  OFFSET -8.9937 0.894989 0.2143
                  CHANNELS 3 Zrotation Xrotation Yrotation
                  JOINT RightHandMiddle2
                  {
                    OFFSET -4.0984 0.0113983 -0.0242
                    CHANNELS 3 Zrotation Xrotation Yrotation
                    JOINT RightHandMiddle3
                    {
                      OFFSET -2.2716 0.00691223 -0.0138001
                      CHANNELS 3 Zrotation Xrotation Yrotation
                      End Site
                      {
                        OFFSET -2.0404 -0.1441 0.0027
                      }
                    }
                  }
                }
                JOINT RightHandRing1
                {
                  OFFSET -8.5234 0.597198 -2.0164
                  CHANNELS 3 Zrotation Xrotation Yrotation
                  JOINT RightHandRing2
                  {
                    OFFSET -3.7188 -0.188309 -0.2328
                    CHANNELS 3 Zrotation Xrotation Yrotation
                    JOINT RightHandRing3
                    {
                      OFFSET -2.1191 -0.106598 -0.1332
                      CHANNELS 3 Zrotation Xrotation Yrotation
                      End Site
                      {
                        OFFSET -1.8737 -0.2304 -0.0886
                      }
                    }
                  }
                }
                JOINT RightHandPinky1
                {
                  OFFSET -7.9094 -0.601105 -3.4825
                  CHANNELS 3 Zrotation Xrotation Yrotation
                  JOINT RightHandPinky2
                  {
                    OFFSET -2.2874 -0.477005 -0.6314
                    CHANNELS 3 Zrotation Xrotation Yrotation
                    JOINT RightHandPinky3
                    {
                      OFFSET -1.6774 -0.349396 -0.4633
                      CHANNELS 3 Zrotation Xrotation Yrotation
                      End Site
                      {
                        OFFSET -1.4888 -0.4091 -0.3416
                      }
                    }
                  }
                }
                JOINT RightHandThumb1
                {
                  OFFSET -1.833 -1.38751 1.3896
                  CHANNELS 3 Zrotation Xrotation Yrotation
                  JOINT RightHandThumb2
                  {
                    OFFSET -3.41299 -1.12099 2.5732
                    CHANNELS 3 Zrotation Xrotation Yrotation
                    JOINT RightHandThumb3
                    {
                      OFFSET -2.24741 -0.804108 1.6192
                      CHANNELS 3 Zrotation Xrotation Yrotation
                      End Site
                      {
                        OFFSET -1.6527 -0.5689 1.1317
                      }
                    }
                  }
                }
              }
            }
          }
        }
      }
    }
  }
  JOINT RightUpLeg
  {
    OFFSET -9.1966 3.8861 -0.7581
    CHANNELS 3 Zrotation Xrotation Yrotation
    JOINT RightLeg
    {
      OFFSET -0.7359 -41.0265 0
      CHANNELS 3 Zrotation Xrotation Yrotation
      JOINT RightFoot
      {
        OFFSET 0 -40.2855 0
        CHANNELS 3 Zrotation Xrotation Yrotation
        JOINT RightToeBase
        {
          OFFSET 0 -5.6122 11.7359
          CHANNELS 3 Zrotation Xrotation Yrotation
          End Site
          {
            OFFSET 0 0 7.8731
          }
        }
      }
    }
  }
  JOINT LeftUpLeg
  {
    OFFSET 9.1965 3.8864 -0.7581
    CHANNELS 3 Zrotation Xrotation Yrotation
    JOINT LeftLeg
    {
      OFFSET 0.7359 -41.0268 0
      CHANNELS 3 Zrotation Xrotation Yrotation
      JOINT LeftFoot
      {
        OFFSET 0 -40.2855 0
        CHANNELS 3 Zrotation Xrotation Yrotation
        JOINT LeftToeBase
        {
          OFFSET 0 -5.6122 11.7359
          CHANNELS 3 Zrotation Xrotation Yrotation
          End Site
          {
            OFFSET 0 0 7.8731
          }
        }
      }
    }
  }
}
MOTION
Frames:	4
Frame Time:	0.0333333
5.84602e-005 68.8428 3.50346 0 0 -0 0 0 -0 0 0 -0 0 0 -0 0 0 -0 0 0 -0 0 0 -0 0 0 -0 0 0 -0 0 0 -0 0 0 -0 0 0 -0 0 0 -0 0 0 -0 -0.0146107 -8.87603e-005 -2.63497e-007 2.99804e-018 -2.42657e-020 -1.42182e-022 0 0 -0 -0.0187562 -0.001176 5.858e-005 5.06224e-018 3.88251e-019 1.21329e-020 0 0 -0 -0.012269 -0.00324817 0.000675346 -1.74678e-018 3.88251e-019 -0 0 0 -0 0 0 -0 0 0 -0 0 0 -0 0 0 -0 0 0 -0 0 0 -0 0 0 -0 0 0 -0 0 0 -0 0 0 -0 0.0149955 -9.10982e-005 2.64101e-007 -9.69331e-018 1.21329e-020 -4.7394e-023 0 0 -0 0.0189956 -0.00119102 -5.96516e-005 -5.41541e-019 0 2.42657e-020 0 0 -0 0.0122698 -0.00324857 -0.000673756 -2.00796e-019 0 -1.94126e-019 0 0 -0 0 0 -0 0 0 -0 3.39842 1.33031 -0.0637918 -5.65207e-008 0.834868 -0.000436188 -3.39935 -2.16518 -0.0642563 -8.89002e-024 -1.18485e-023 -1.48106e-024 -3.39844 1.35642 0.0640283 -3.18788e-007 0.782166 -0.000588827 3.39931 -2.13858 0.0634662 1.1399e-023 0 -0 
39.6536 20.5016 12.0714 -0 -64.0139 -0 -1.80078 -7.6147 -0.879346 -3.77097 -15.1965 -2.02934 -3.77097 -15.1965 -2.02934 -18.8862 6.43145 3.22432 -1.25312 -16.3363 0.857126 16.4751 7.30082 16.9542 -4.94209 52.8643 15.8836 7.29325 40.4508 -10.5946 11.8591 0.845493 -16.8042 8.43979e-007 2.08342e-007 8.51191e-007 2.06239e-015 -7.95139e-016 3.18055e-015 8.43979e-007 2.08342e-007 8.51191e-007 8.43979e-007 2.08342e-007 8.51191e-007 -0.0146227 -8.90809e-005 -1.17874e-006 8.4396e-007 2.08234e-007 8.51217e-007 8.43979e-007 2.08342e-007 8.51191e-007 -0.0187515 -0.00117558 6.03052e-005 1.21796e-006 2.39292e-007 1.16061e-006 8.43979e-007 2.08342e-007 8.51191e-007 -0.012255 -0.00324357 0.000673498 8.43988e-007 2.08242e-007 8.51191e-007 8.43979e-007 2.08342e-007 8.51191e-007 2.06239e-015 -7.95139e-016 3.18055e-015 8.43979e-007 2.08342e-007 8.51191e-007 -14.3063 5.60317 -12.4323 2.75109 53.0683 -7.12941 -0.365778 40.9621 0.444603 -7.32357 6.30069 21.5116 3.29237e-016 -9.93923e-017 7.95139e-016 3.49737e-015 -9.93923e-017 3.97569e-016 3.47252e-015 -1.98785e-016 -3.97569e-016 3.29237e-016 -9.93923e-017 7.95139e-016 0.0149949 -9.1045e-005 4.59901e-008 -5.18083e-015 1.98785e-016 -3.97569e-016 3.29237e-016 -9.93923e-017 7.95139e-016 0.019004 -0.00119157 -5.92191e-005 -4.28629e-015 0 -3.97569e-016 3.29237e-016 -9.93923e-017 7.95139e-016 0.0122379 -0.00323953 -0.000673035 -1.73937e-015 4.96962e-016 -0 3.29237e-016 -9.93923e-017 7.95139e-016 3.49737e-015 -9.93923e-017 3.97569e-016 3.47252e-015 -1.98785e-016 -3.97569e-016 -41.9761 17.0094 -42.802 -141.462 24.4708 174.921 30.6706 29.7075 -60.8332 1.1625e-007 -5.45628e-007 9.72688e-007 47.6734 16.8309 33.6207 132.349 27.9723 -172.601 -34.1933 37.7955 29.791 -1.77917e-006 -3.76019e-007 -2.57182e-007 
39.6535 20.3958 12.0721 -0 -64.0139 -0 -1.80253 -7.40517 -0.859478 -3.76561 -14.7783 -1.98078 -3.76562 -14.7782 -1.98078 -18.8704 6.01112 3.07979 -1.25757 -17.0018 0.841955 16.1771 7.21261 17.2275 -4.94209 52.8643 15.8836 7.29323 40.4507 -10.5946 11.901 0.0438204 -16.5478 8.60752e-007 -4.83079e-009 8.3363e-007 -1.79378e-008 2.11798e-007 1.91455e-008 8.60752e-007 -4.83079e-009 8.3363e-007 8.60752e-007 -4.83079e-009 8.3363e-007 -0.0146056 -8.88896e-005 1.17553e-006 8.60733e-007 -4.93717e-009 8.33629e-007 8.60752e-007 -4.83079e-009 8.3363e-007 -0.0187715 -0.00117678 6.05568e-005 8.60736e-007 -4.96933e-009 8.33621e-007 8.60752e-007 -4.83079e-009 8.3363e-007 -0.0122775 -0.00324995 0.000675905 8.60759e-007 -4.92939e-009 8.33606e-007 8.60752e-007 -4.83079e-009 8.3363e-007 -1.79378e-008 2.11798e-007 1.91455e-008 8.60752e-007 -4.83079e-009 8.3363e-007 -13.9721 5.54391 -12.8828 2.75108 53.0684 -7.1294 -0.36578 40.9621 0.4446 -7.34552 5.52185 21.3647 1.52816e-015 9.93923e-017 -3.97569e-016 1.52505e-015 1.98785e-016 -3.97569e-016 4.72114e-015 3.97569e-016 -0 1.52816e-015 9.93923e-017 -3.97569e-016 0.0149854 -9.10742e-005 3.13566e-007 -3.86698e-015 -9.93923e-017 7.95139e-016 1.52816e-015 9.93923e-017 -3.97569e-016 0.0190008 -0.00119132 -5.93884e-005 4.5969e-016 9.93923e-017 -3.97569e-016 1.52816e-015 9.93923e-017 -3.97569e-016 0.0122634 -0.00324773 -0.000675166 2.73018e-015 0 7.95139e-016 1.52816e-015 9.93923e-017 -3.97569e-016 1.52505e-015 1.98785e-016 -3.97569e-016 4.72114e-015 3.97569e-016 -0 -42.2468 16.9435 -42.7226 -141.455 24.474 174.919 30.3905 29.8962 -60.7051 -7.14359e-007 -3.21876e-006 2.79455e-008 47.9199 16.7226 33.5703 132.341 27.9752 -172.595 -33.9179 37.9878 29.646 -7.45797e-007 -1.16248e-006 3.98128e-006 
39.6534 20.29 12.0727 -0 -64.0139 -0 -1.80425 -7.19535 -0.83957 -3.76044 -14.3594 -1.93224 -3.76044 -14.3594 -1.93224 -18.856 5.59087 2.93551 -1.26222 -17.6678 0.82666 15.8795 7.12294 17.5002 -4.94209 52.8643 15.8836 7.29324 40.4507 -10.5946 11.9465 -0.758352 -16.2905 -3.93616e-007 1.10318e-008 -2.80546e-007 1.66482e-015 2.98177e-016 1.59028e-015 3.93616e-007 -1.10318e-008 2.80546e-007 -3.93616e-007 1.10318e-008 -2.80546e-007 -0.0146187 -8.88528e-005 4.51883e-007 6.95746e-016 -1.98785e-016 -1.59028e-015 -3.93616e-007 1.10318e-008 -2.80546e-007 -0.0187753 -0.00117718 5.97199e-005 3.47873e-016 4.96962e-016 3.18055e-015 -3.93616e-007 1.10318e-008 -2.80546e-007 -0.012316 -0.00326058 0.000678304 3.95097e-007 -1.06743e-008 2.80453e-007 -3.93616e-007 1.10318e-008 -2.80546e-007 1.66482e-015 2.98177e-016 1.59028e-015 3.93616e-007 -1.10318e-008 2.80546e-007 -13.6384 5.48199 -13.333 2.75108 53.0684 -7.1294 -0.365787 40.9621 0.444613 -7.36947 4.74246 21.2175 3.24889e-015 -9.93923e-017 -0 -9.40644e-007 1.42801e-008 1.2462e-007 -7.52586e-015 -1.98785e-016 -1.19271e-015 3.24889e-015 -9.93923e-017 -0 0.0149973 -9.1154e-005 6.93038e-007 -3.30169e-015 0 3.97569e-016 3.24889e-015 -9.93923e-017 -0 0.0190053 -0.00119194 -6.00806e-005 -1.16382e-014 0 -3.97569e-016 3.24889e-015 -9.93923e-017 -0 0.0122661 -0.00324711 -0.000677294 1.70831e-016 -1.98785e-016 -3.97569e-016 3.24889e-015 -9.93923e-017 -0 -9.40644e-007 1.42801e-008 1.2462e-007 -7.52586e-015 -1.98785e-016 -1.19271e-015 -42.5175 16.8773 -42.6435 -141.449 24.4772 174.918 30.1093 30.0844 -60.5755 -1.37925e-006 -3.60945e-006 -1.48204e-006 48.1661 16.614 33.5206 132.333 27.9782 -172.59 -33.6412 38.1797 29.4995 -2.17903e-006 -7.43975e-007 1.07765e-006 
